<?xml version="1.0" encoding="utf-8"?>
<!-- Svg Vector Icons : http://www.onlinewebfonts.com/icon -->
<!DOCTYPE svg PUBLIC "-//W3C//DTD SVG 1.1//EN" "http://www.w3.org/Graphics/SVG/1.1/DTD/svg11.dtd">
<svg version="1.1" xmlns="http://www.w3.org/2000/svg" xmlns:xlink="http://www.w3.org/1999/xlink" x="0px" y="0px" viewBox="0 0 1000 1000" enable-background="new 0 0 1000 1000" xml:space="preserve">
<metadata> Svg Vector Icons : http://www.onlinewebfonts.com/icon </metadata>
<g><g transform="translate(0.000000,511.000000) scale(0.100000,-0.100000)"><path d="M4557.6,4998.6c-951-92.4-1830.7-442.8-2598.8-1037.6c-369.6-284.9-847-818.1-1124.2-1253.2c-121.3-190.6-358.1-675.7-442.7-906.7c-94.3-259.9-196.4-654.5-246.4-960.6c-59.7-379.2-61.6-1070.3,0-1453.4c86.6-539,217.5-958.7,454.3-1443.8c248.3-508.2,525.5-891.3,945.2-1309c406.2-406.2,785.4-677.6,1289.8-924c481.3-234.9,904.8-369.6,1434.1-456.2c375.4-59.7,1066.5-59.7,1453.4,0c525.5,82.8,956.7,217.5,1443.8,456.2c968.3,471.6,1757.5,1260.9,2233,2233c236.8,485.1,373.5,918.2,456.2,1443.8c59.7,386.9,59.7,1078,0,1453.4c-86.6,529.4-221.4,952.9-456.2,1434.1c-246.4,504.4-517.8,883.6-924,1289.8c-417.7,419.6-800.8,696.9-1309,945.2c-481.3,234.8-906.7,369.6-1426.4,450.4C5458.5,5004.4,4827.1,5025.6,4557.6,4998.6z M5404.6,4419.2c795-71.2,1568.9-373.5,2229.2-870.1c238.7-177.1,629.5-567.9,804.6-802.7c554.4-743.1,848.9-1563.1,885.5-2473.6c63.5-1545.8-716.1-3016.5-2032.8-3840.4c-716.1-448.5-1605.5-681.5-2454.4-646.8c-910.5,36.6-1730.6,331.1-2473.6,885.5c-234.9,175.2-625.6,565.9-802.7,804.6c-1185.8,1580.4-1185.8,3686.4,0,5266.8c177.1,238.7,567.9,629.5,806.6,806.6C3254.4,4215.1,4315.1,4519.3,5404.6,4419.2z"/><path d="M3310.2,2550c-38.5-55.8-125.1-175.2-188.7-265.6l-119.3-163.6l677.6-11.6c721.9-11.6,773.9-19.3,1053-125.1c223.3-82.8,386.9-206,500.5-367.7l57.7-82.8l-956.7-3.9l-958.7-5.8l-186.7-259.9l-186.7-259.9l1189.7-5.8l1189.7-3.9l-28.9-130.9C5252.5,426.7,4900.3,136,4307.4,7.1c-155.9-34.6-250.2-40.4-639.1-42.4h-458.1v-256v-254.1l1164.6-1270.5l1164.6-1270.5h442.8h442.8v57.8c0,50-163.6,240.6-1116.5,1309C4694.3-1032.5,4191.9-462.6,4191.9-453c0,7.7,102,25,227.1,38.5c943.3,100.1,1592,564,1784.5,1280.1l34.6,129H6600H6962l204,269.5l204,269.5h-577.5H6215l-23.1,80.8c-34.7,129-134.8,319.5-215.6,412l-75.1,84.7h540.9h539l192.5,269.5l194.4,269.5H5375.7H3383.4L3310.2,2550z"/></g></g>
</svg>