<?xml version="1.0" encoding="iso-8859-1"?>
<!-- Uploaded to: SVG Repo, www.svgrepo.com, Generator: SVG Repo Mixer Tools -->
<svg height="800px" width="800px" version="1.1" id="Layer_1" xmlns="http://www.w3.org/2000/svg" xmlns:xlink="http://www.w3.org/1999/xlink" 
	 viewBox="0 0 512 512" xml:space="preserve">
<circle style="fill:#00447D;" cx="256" cy="256" r="256"/>
<path style="fill:#062964;" d="M260.649,511.941C399.886,509.459,512,395.831,512,256c0-12.309-0.888-24.409-2.567-36.255
	L401.394,111.706L245.931,268.597l-57.234,42.496l-42.451-42.451l-89.931,38.964L260.649,511.941z"/>
<polygon style="fill:#FFDC86;" points="113.607,262.697 56.313,307.605 70.565,321.857 103.543,295.474 77.16,328.452 
	84.53,335.822 119.156,311.089 94.423,345.716 101.793,353.085 134.77,326.703 108.389,359.681 168.279,419.571 202.905,394.838 
	178.173,429.465 186.961,438.253 219.939,411.872 193.557,444.849 203.938,455.23 249.877,398.967 "/>
<polygon style="fill:#FFBF1A;" points="130.929,382.219 168.279,419.571 202.905,394.838 178.173,429.465 186.961,438.253 
	219.939,411.872 193.557,444.849 203.938,455.23 249.877,398.967 182.029,331.119 "/>
<path style="fill:#FF764C;" d="M207.293,322.315l193.484-193.484c4.663-4.663,5.137-12.324,0.615-17.125
	c-4.679-4.968-12.502-5.056-17.293-0.265L190.259,305.281l-50.716-50.716c-4.917-4.917-12.89-4.917-17.806,0l-8.13,8.13
	l136.27,136.27l8.13-8.13c4.917-4.917,4.917-12.89,0-17.806L207.293,322.315z"/>
<path style="fill:#FF450C;" d="M401.415,111.733L182.029,331.119l67.848,67.848l8.13-8.13c4.917-4.917,4.917-12.89,0-17.806
	l-50.716-50.716l193.486-193.484C405.433,124.175,405.911,116.536,401.415,111.733z"/>
</svg>